<?xml version="1.0" encoding="UTF-8" ?>
<!DOCTYPE svg PUBLIC "-//W3C//DTD SVG 1.1//EN" "http://www.w3.org/Graphics/SVG/1.1/DTD/svg11.dtd">
<svg width="183pt" height="124pt" viewBox="0 0 183 124" version="1.1" xmlns="http://www.w3.org/2000/svg">
<g id="#fefefeff">
</g>
<g id="#000000ff">
<path fill="#000000" opacity="1.00" d=" M 45.23 6.06 C 46.64 6.44 48.62 5.98 49.39 7.57 C 53.81 14.30 57.87 21.34 63.05 27.52 C 63.50 27.45 64.40 27.31 64.86 27.23 C 68.95 20.57 73.07 13.80 75.70 6.39 C 76.98 6.47 78.25 6.55 79.53 6.63 C 80.61 12.20 76.11 16.17 73.61 20.58 C 71.23 24.29 70.69 28.78 68.72 32.67 C 65.11 39.86 62.99 47.98 63.66 56.06 C 64.40 59.32 64.63 62.65 64.85 65.98 C 65.44 65.77 66.63 65.35 67.22 65.14 C 71.56 58.19 75.19 50.83 78.73 43.45 C 79.92 43.56 81.11 43.68 82.31 43.79 C 82.27 45.17 82.46 46.63 81.80 47.90 C 79.43 53.68 77.32 60.11 78.76 66.37 C 79.06 66.79 79.67 67.62 79.98 68.04 C 81.78 64.69 83.60 61.34 85.58 58.08 C 84.56 55.44 84.34 52.61 84.46 49.80 C 85.63 47.60 88.58 48.89 90.56 48.36 C 93.07 46.77 94.98 43.67 98.37 44.47 C 100.47 47.42 96.90 49.24 94.89 50.80 C 92.51 52.29 90.94 54.65 89.39 56.92 C 91.03 60.08 92.41 63.47 94.93 66.07 C 96.81 67.94 98.38 70.67 101.30 70.86 C 102.24 65.44 103.68 60.10 105.78 55.01 C 104.94 52.96 104.09 50.91 103.23 48.86 C 104.12 47.97 105.07 47.15 106.06 46.38 C 107.56 46.48 108.91 47.24 110.31 47.73 C 109.95 54.20 114.07 59.54 115.75 65.53 C 116.60 65.55 117.45 65.58 118.30 65.60 C 119.06 62.81 119.75 59.91 121.48 57.53 C 124.87 52.56 125.62 46.44 128.10 41.05 C 130.68 40.85 133.48 43.14 132.32 45.87 C 129.56 50.45 125.74 55.66 127.87 61.25 C 129.27 63.43 130.20 66.84 133.31 66.88 C 134.02 60.34 136.09 54.07 138.41 47.95 C 139.59 44.82 141.77 42.01 141.80 38.54 C 142.71 38.56 143.61 38.57 144.52 38.59 C 147.02 42.37 143.42 46.26 143.53 50.22 C 143.51 54.58 141.87 58.68 141.35 62.97 C 140.83 67.45 136.56 70.81 137.44 75.52 C 143.31 76.66 147.06 71.45 151.56 68.76 C 153.22 68.35 154.95 68.43 156.65 68.31 C 158.40 70.50 158.69 73.29 159.16 75.95 C 160.05 84.60 158.75 93.40 160.39 101.98 C 160.41 105.36 160.48 108.75 161.44 112.03 C 162.50 117.04 152.91 120.48 151.77 114.74 C 153.65 114.59 155.55 114.49 157.44 114.36 C 158.14 106.23 156.07 98.26 156.45 90.14 C 155.19 84.25 155.73 78.21 155.44 72.22 C 149.24 72.86 144.89 78.18 138.93 79.74 C 132.98 76.60 129.75 70.37 124.88 66.01 C 122.91 71.86 122.62 78.55 118.49 83.46 C 117.29 83.55 116.09 83.45 114.89 83.40 C 114.58 82.81 113.95 81.62 113.63 81.03 C 116.56 73.83 111.91 66.86 109.37 60.34 C 108.86 60.34 107.85 60.34 107.34 60.34 C 104.55 66.16 106.18 72.72 104.26 78.74 C 102.68 78.46 100.89 78.63 99.68 77.38 C 95.79 73.56 92.02 69.54 89.04 64.94 C 88.33 63.66 87.03 62.92 85.89 62.07 C 83.98 66.30 83.86 71.05 82.27 75.39 C 81.49 76.58 80.43 76.89 79.10 76.34 C 75.08 72.49 75.05 66.49 74.41 61.35 C 73.91 61.35 72.92 61.36 72.42 61.37 C 70.62 65.68 70.08 70.60 67.37 74.47 C 66.55 76.18 63.56 75.75 63.26 73.85 C 59.39 64.88 63.38 54.58 59.46 45.51 C 57.64 44.76 57.03 47.02 56.10 48.10 C 50.72 57.38 44.79 66.37 40.02 76.01 C 37.44 82.06 33.02 87.03 30.17 92.94 C 28.49 92.14 26.84 91.30 25.22 90.41 C 25.15 86.33 29.48 84.48 31.06 81.07 C 37.85 72.35 43.12 62.60 49.67 53.70 C 54.09 46.03 59.54 38.62 61.72 29.96 C 56.53 23.33 51.84 16.21 45.74 10.34 C 45.33 8.95 45.38 7.49 45.23 6.06 Z" />
</g>
</svg>
